<?xml version="1.0" encoding="utf-8"?>
<!-- Svg Vector Icons : http://www.onlinewebfonts.com/icon -->
<!DOCTYPE svg PUBLIC "-//W3C//DTD SVG 1.1//EN" "http://www.w3.org/Graphics/SVG/1.1/DTD/svg11.dtd">
<svg version="1.1" xmlns="http://www.w3.org/2000/svg" xmlns:xlink="http://www.w3.org/1999/xlink" x="0px" y="0px" viewBox="0 0 256 256" enable-background="new 0 0 256 256" xml:space="preserve">
<metadata> Svg Vector Icons : http://www.onlinewebfonts.com/icon </metadata>
<g><g><g><path fill="#000000" d="M227,63.5c-0.7,1.3-1.5,2.5-2.5,3.5c-7.2,7.2-21,5.1-30.8-4.7c-9.8-9.8-11.9-23.6-4.7-30.8c1-1,2.2-1.9,3.5-2.5l-19-19l-28.1,28.1l7,7l-4.4,4.4l-7-7l-131,131l18.5,18.5c7.2-7.2,21-5.1,30.8,4.7c9.8,9.8,11.9,23.6,4.7,30.8L82.6,246L246,82.6L227,63.5z M169.5,71l-10.8-10.8l4.4-4.4l10.8,10.8L169.5,71z M191.1,92.5l-10.8-10.8l4.4-4.4l10.8,10.8L191.1,92.5z M212.6,114l-10.8-10.8l4.4-4.4l10.8,10.8L212.6,114z"/></g><g></g><g></g><g></g><g></g><g></g><g></g><g></g><g></g><g></g><g></g><g></g><g></g><g></g><g></g><g></g></g></g>
</svg>